<?xml version="1.0" encoding="UTF-8"?>
<svg id="Layer_1" xmlns="http://www.w3.org/2000/svg" width="3.6in" height="3.6in" version="1.1" viewBox="0 0 259.2 259.2">
  <!-- Generator: Adobe Illustrator 29.0.0, SVG Export Plug-In . SVG Version: 2.1.0 Build 186)  -->
  <defs>
    <style>
      .st0 {
        fill: #ffb81c;
      }
    </style>
  </defs>
  <g id="Layer_11">
    <path class="st0" d="M129.6,23.4c34.6,0,38.7.1,52.3.7,12.7.6,19.5,2.7,24.1,4.5,6.1,2.3,10.3,5.2,14.9,9.7s7.4,8.8,9.7,14.9c1.8,4.6,3.8,11.4,4.5,24.1.6,13.7.7,17.7.7,52.3s-.1,38.7-.7,52.3c-.6,12.7-2.7,19.5-4.5,24.1-2.3,6.1-5.2,10.3-9.7,14.9s-8.8,7.4-14.9,9.7c-4.6,1.8-11.4,3.8-24.1,4.5-13.7.6-17.7.7-52.3.7s-38.7-.1-52.3-.7c-12.7-.6-19.5-2.7-24.1-4.5-6.1-2.3-10.3-5.2-14.9-9.7s-7.4-8.8-9.7-14.9c-1.8-4.6-3.8-11.4-4.5-24.1-.6-13.7-.7-17.7-.7-52.3s.1-38.7.7-52.3c.6-12.7,2.7-19.5,4.5-24.1,2.3-6.1,5.2-10.3,9.7-14.9s8.8-7.4,14.9-9.7c4.6-1.8,11.4-3.8,24.1-4.5,13.7-.6,17.7-.7,52.3-.7M129.6,0c-35.2,0-39.6.1-53.5.8-13.8.6-23.2,2.8-31.5,6-8.5,3.3-15.8,7.7-23,15-7.2,7.2-11.6,14.5-15,23-3.2,8.2-5.4,17.6-6,31.5C.1,90.1-.1,94.5-.1,129.7s.1,39.6.8,53.5c.6,13.8,2.8,23.2,6,31.5,3.3,8.5,7.7,15.8,15,23,7.2,7.2,14.5,11.6,23,15,8.2,3.2,17.6,5.4,31.5,6s18.2.8,53.5.8,39.6-.1,53.5-.8c13.8-.6,23.2-2.8,31.5-6,8.5-3.3,15.8-7.7,23-15,7.2-7.2,11.6-14.5,15-23,3.2-8.2,5.4-17.6,6-31.5s.8-18.2.8-53.5-.1-39.6-.8-53.5c-.6-13.8-2.8-23.2-6-31.5-3.3-8.5-7.7-15.8-15-23-7.2-7.2-14.5-11.6-23-15-8.2-3.2-17.6-5.4-31.5-6-14-.5-18.4-.7-53.6-.7ZM129.6,63.1c-36.8,0-66.5,29.8-66.5,66.5s29.8,66.5,66.5,66.5,66.5-29.8,66.5-66.5-29.8-66.5-66.5-66.5ZM129.6,172.8c-23.9,0-43.2-19.3-43.2-43.2s19.3-43.2,43.2-43.2,43.2,19.3,43.2,43.2-19.3,43.2-43.2,43.2ZM214.3,60.4c0,8.6-7,15.6-15.6,15.6s-15.6-7-15.6-15.6,7-15.6,15.6-15.6,15.6,7,15.6,15.6Z"/>
  </g>
</svg>